<svg width="19" height="19" viewBox="0 0 19 19" fill="none" xmlns="http://www.w3.org/2000/svg">
<path d="M18.9509 4.16635C18.8653 3.73492 18.674 3.34011 18.4068 3.01396C18.3505 2.94289 18.2917 2.87925 18.2279 2.81561C17.7545 2.33994 17.0902 2.04321 16.3645 2.04321H2.63555C1.9098 2.04321 1.24784 2.33994 0.772283 2.81561C0.708641 2.87925 0.649785 2.94289 0.593305 3.01396C0.326006 3.34007 0.134707 3.73492 0.0514336 4.16635C0.0172188 4.33286 0 4.50494 0 4.67891V14.3211C0 14.6911 0.0784492 15.0466 0.218352 15.3677C0.348123 15.6743 0.539459 15.9516 0.772246 16.1842C0.83125 16.243 0.889846 16.2971 0.953785 16.351C1.40971 16.7285 1.99823 16.9566 2.63555 16.9566H16.3645C17.002 16.9566 17.5931 16.7285 18.0464 16.3486C18.1101 16.2971 18.169 16.243 18.2279 16.1842C18.4605 15.9516 18.6518 15.6743 18.7843 15.3677V15.3654C18.9241 15.0443 19 14.6911 19 14.3212V4.67891C19 4.50494 18.983 4.33286 18.9509 4.16635ZM1.72592 3.76913C1.96138 3.53393 2.27759 3.39155 2.63555 3.39155H16.3645C16.7224 3.39155 17.0414 3.53393 17.2741 3.76913C17.3157 3.81103 17.3549 3.85771 17.3896 3.9041L10.1938 10.1754C9.99534 10.3493 9.75019 10.4352 9.5 10.4352C9.25233 10.4352 9.00734 10.3493 8.80624 10.1754L1.61322 3.90143C1.64506 3.85504 1.68428 3.81103 1.72592 3.76913ZM1.34833 14.3211V5.2967L6.55567 9.83945L1.35097 14.3774C1.34833 14.3601 1.34833 14.3408 1.34833 14.3211ZM16.3645 15.608H2.63555C2.40246 15.608 2.18437 15.5467 1.99823 15.4391L7.4896 10.6535L8.00227 11.0995C8.43129 11.4723 8.96815 11.6611 9.5 11.6611C10.0346 11.6611 10.5714 11.4723 11.0004 11.0995L11.5128 10.6535L17.002 15.4391C16.8156 15.5467 16.5975 15.608 16.3645 15.608ZM17.6517 14.3211C17.6517 14.3408 17.6517 14.3601 17.6491 14.3774L12.4445 9.84208L17.6517 5.29912V14.3211Z" fill="#E6E6E6"/>
</svg>
