<svg width="19" height="19" viewBox="0 0 19 19" fill="none" xmlns="http://www.w3.org/2000/svg">
<path fill-rule="evenodd" clip-rule="evenodd" d="M7.26083 3.30257C7.8547 2.70871 8.66012 2.37508 9.5 2.37508C10.3399 2.37508 11.1453 2.70871 11.7392 3.30257C12.1815 3.74486 12.4794 4.30453 12.6027 4.90842C12.6902 5.33682 13.1083 5.6132 13.5367 5.52575C13.9651 5.4383 14.2415 5.02013 14.1541 4.59174C13.9691 3.68601 13.5222 2.84648 12.8587 2.18299C11.9679 1.29219 10.7598 0.791748 9.5 0.791748C8.24022 0.791748 7.03204 1.29219 6.14124 2.18299C5.25044 3.07379 4.75 4.28197 4.75 5.54175V7.91675H3.95833C2.64666 7.91675 1.58333 8.98004 1.58333 10.2917V15.8334C1.58333 17.1451 2.64666 18.2084 3.95833 18.2084H15.0417C16.3534 18.2084 17.4167 17.1451 17.4167 15.8334V10.2917C17.4167 8.98004 16.3534 7.91675 15.0417 7.91675H6.33333V5.54175C6.33333 4.70189 6.66697 3.89644 7.26083 3.30257ZM3.95833 9.50008C3.52111 9.50008 3.16667 9.85451 3.16667 10.2917V15.8334C3.16667 16.2707 3.52111 16.6251 3.95833 16.6251H15.0417C15.4789 16.6251 15.8333 16.2707 15.8333 15.8334V10.2917C15.8333 9.85451 15.4789 9.50008 15.0417 9.50008H3.95833Z" fill="#E6E6E6"/>
</svg>
